<svg width="191" height="32" viewBox="0 0 191 32" fill="none" xmlns="http://www.w3.org/2000/svg">
<path d="M187.111 26.8274L189.474 20.2546H191L187.652 29.158C187.291 30.1081 186.794 30.8291 186.159 31.3209C185.536 31.8239 184.819 32.0475 184.01 31.9916V30.6335C185.016 30.7117 185.754 30.1416 186.225 28.9232L186.373 28.6047L182.795 20.2546H184.321L187.111 26.8274Z" fill="white"/>
<path d="M178.629 28.8563C177.393 28.8563 176.365 28.4371 175.544 27.5988C174.724 26.7492 174.314 25.6985 174.314 24.4465C174.314 23.1946 174.724 22.1494 175.544 21.3111C176.365 20.4616 177.393 20.0368 178.629 20.0368C179.439 20.0368 180.166 20.238 180.812 20.6404C181.457 21.0316 181.939 21.5626 182.256 22.2333L181.058 22.9375C180.85 22.4904 180.527 22.1327 180.09 21.8644C179.663 21.5961 179.176 21.462 178.629 21.462C177.809 21.462 177.12 21.747 176.562 22.3171C176.015 22.8984 175.741 23.6082 175.741 24.4465C175.741 25.2737 176.015 25.9779 176.562 26.5592C177.12 27.1293 177.809 27.4143 178.629 27.4143C179.176 27.4143 179.669 27.2858 180.106 27.0287C180.544 26.7604 180.877 26.4027 181.107 25.9556L182.322 26.6766C181.961 27.3472 181.452 27.8782 180.795 28.2694C180.139 28.6607 179.417 28.8563 178.629 28.8563Z" fill="white"/>
<path d="M169.597 20.0368C170.559 20.0368 171.331 20.3498 171.91 20.9757C172.49 21.5905 172.78 22.4289 172.78 23.4908V28.6383H171.353V23.5746C171.353 22.904 171.172 22.3786 170.811 21.9985C170.45 21.6185 169.952 21.4285 169.318 21.4285C168.585 21.4285 168.005 21.6632 167.578 22.1327C167.152 22.591 166.938 23.2784 166.938 24.195V28.6383H165.511V20.2548H166.938V21.462C167.507 20.5119 168.393 20.0368 169.597 20.0368Z" fill="white"/>
<path d="M163.82 25.1172H156.945C157.087 25.855 157.421 26.4362 157.946 26.861C158.471 27.2746 159.127 27.4814 159.915 27.4814C160.998 27.4814 161.786 27.0734 162.278 26.2574L163.492 26.9616C162.683 28.2247 161.479 28.8563 159.882 28.8563C158.591 28.8563 157.53 28.4427 156.699 27.6155C155.889 26.766 155.484 25.7097 155.484 24.4465C155.484 23.1722 155.884 22.1215 156.682 21.2943C157.481 20.456 158.515 20.0368 159.784 20.0368C160.987 20.0368 161.966 20.4727 162.721 21.3446C163.487 22.1942 163.87 23.2337 163.87 24.4633C163.87 24.6757 163.853 24.8937 163.82 25.1172ZM159.784 21.4117C159.029 21.4117 158.394 21.6297 157.88 22.0656C157.377 22.5016 157.065 23.094 156.945 23.8429H162.426C162.305 23.0716 162.004 22.4736 161.523 22.0488C161.042 21.6241 160.462 21.4117 159.784 21.4117Z" fill="white"/>
<path d="M152.353 21.6965V16.9011H153.781V28.6381H152.353V27.1961C151.653 28.3027 150.619 28.856 149.252 28.856C148.092 28.856 147.113 28.4313 146.315 27.5817C145.505 26.721 145.1 25.6759 145.1 24.4463C145.1 23.2279 145.505 22.1883 146.315 21.3276C147.124 20.4669 148.103 20.0365 149.252 20.0365C150.619 20.0365 151.653 20.5898 152.353 21.6965ZM149.432 27.4476C150.264 27.4476 150.959 27.1625 151.517 26.5925C152.074 26 152.353 25.2846 152.353 24.4463C152.353 23.5967 152.074 22.8869 151.517 22.3169C150.959 21.7356 150.264 21.445 149.432 21.445C148.612 21.445 147.923 21.7356 147.365 22.3169C146.807 22.8869 146.528 23.5967 146.528 24.4463C146.528 25.2846 146.807 26 147.365 26.5925C147.923 27.1625 148.612 27.4476 149.432 27.4476Z" fill="white"/>
<path d="M142.676 18.7287C142.403 18.7287 142.173 18.6337 141.987 18.4436C141.801 18.2536 141.708 18.0245 141.708 17.7562C141.708 17.4879 141.801 17.2588 141.987 17.0687C142.173 16.8675 142.403 16.7669 142.676 16.7669C142.939 16.7669 143.163 16.8675 143.349 17.0687C143.535 17.2588 143.628 17.4879 143.628 17.7562C143.628 18.0245 143.535 18.2536 143.349 18.4436C143.163 18.6337 142.939 18.7287 142.676 18.7287ZM143.382 28.638H141.954V20.2545H143.382V28.638Z" fill="white"/>
<path d="M135.749 22.5183C135.749 23.0549 136.291 23.474 137.374 23.7759C137.779 23.8653 138.118 23.9603 138.391 24.0609C138.676 24.1503 138.982 24.29 139.31 24.4801C139.649 24.6701 139.906 24.9216 140.082 25.2346C140.257 25.5476 140.344 25.9165 140.344 26.3412C140.344 27.1013 140.054 27.7105 139.474 28.1688C138.895 28.6271 138.162 28.8563 137.275 28.8563C136.488 28.8563 135.804 28.683 135.224 28.3365C134.655 27.9788 134.251 27.4981 134.01 26.8945L135.241 26.1735C135.372 26.576 135.618 26.8945 135.979 27.1293C136.34 27.364 136.772 27.4814 137.275 27.4814C137.768 27.4814 138.162 27.3864 138.457 27.1963C138.752 27.0063 138.9 26.7213 138.9 26.3412C138.9 25.7711 138.359 25.3575 137.275 25.1005C136.914 24.9999 136.641 24.9216 136.455 24.8657C136.269 24.8098 136.012 24.7092 135.684 24.5639C135.367 24.4186 135.126 24.2677 134.962 24.1112C134.798 23.9435 134.645 23.7256 134.502 23.4573C134.371 23.1778 134.305 22.8704 134.305 22.5351C134.305 21.8085 134.579 21.2105 135.126 20.741C135.684 20.2715 136.378 20.0368 137.21 20.0368C137.877 20.0368 138.468 20.1933 138.982 20.5063C139.507 20.8081 139.901 21.2328 140.164 21.7806L138.966 22.468C138.67 21.7526 138.085 21.3949 137.21 21.3949C136.794 21.3949 136.444 21.4955 136.16 21.6967C135.886 21.8979 135.749 22.1718 135.749 22.5183Z" fill="white"/>
<path d="M133.149 25.1172H126.273C126.416 25.855 126.749 26.4362 127.274 26.861C127.799 27.2746 128.456 27.4814 129.243 27.4814C130.327 27.4814 131.114 27.0734 131.606 26.2574L132.821 26.9616C132.011 28.2247 130.808 28.8563 129.211 28.8563C127.92 28.8563 126.859 28.4427 126.027 27.6155C125.218 26.766 124.813 25.7097 124.813 24.4465C124.813 23.1722 125.212 22.1215 126.011 21.2943C126.809 20.456 127.843 20.0368 129.112 20.0368C130.316 20.0368 131.295 20.4727 132.05 21.3446C132.815 22.1942 133.198 23.2337 133.198 24.4633C133.198 24.6757 133.182 24.8937 133.149 25.1172ZM129.112 21.4117C128.357 21.4117 127.723 21.6297 127.209 22.0656C126.706 22.5016 126.394 23.094 126.273 23.8429H131.754C131.634 23.0716 131.333 22.4736 130.852 22.0488C130.37 21.6241 129.79 21.4117 129.112 21.4117Z" fill="white"/>
<path d="M124.305 28.6381H122.615L120.039 24.1445H117.331V28.6381H115.805V16.9011H120.4C121.384 16.9011 122.227 17.2588 122.927 17.9742C123.627 18.6784 123.977 19.5335 123.977 20.5395C123.977 21.2997 123.753 21.9927 123.304 22.6187C122.845 23.2558 122.276 23.6973 121.598 23.9433L124.305 28.6381ZM120.4 18.3598H117.331V22.736H120.4C120.969 22.736 121.45 22.5236 121.844 22.0989C122.249 21.6741 122.451 21.1543 122.451 20.5395C122.451 19.9247 122.249 19.4106 121.844 18.997C121.45 18.5722 120.969 18.3598 120.4 18.3598Z" fill="white"/>
<path d="M175.317 3.26964C176.247 3.26964 176.991 3.57703 177.549 4.19183C178.118 4.80662 178.402 5.62821 178.402 6.65659V11.8712H176.975V6.70689C176.975 6.06974 176.811 5.57232 176.482 5.21462C176.165 4.84574 175.728 4.66131 175.17 4.66131C174.535 4.66131 174.037 4.87928 173.676 5.31522C173.326 5.73999 173.151 6.37155 173.151 7.20991V11.8712H171.724V6.70689C171.724 6.06974 171.565 5.57232 171.248 5.21462C170.941 4.84574 170.52 4.66131 169.984 4.66131C169.361 4.66131 168.852 4.88487 168.458 5.33199C168.075 5.76793 167.884 6.39391 167.884 7.20991V11.8712H166.456V3.48761H167.884V4.611C168.442 3.71676 169.257 3.26964 170.329 3.26964C171.434 3.26964 172.238 3.7447 172.741 4.69484C173.31 3.7447 174.169 3.26964 175.317 3.26964Z" fill="white"/>
<path d="M162.855 7.93077V3.48749H164.283V11.871H162.855V10.6638C162.286 11.6139 161.4 12.089 160.197 12.089C159.234 12.089 158.463 11.7816 157.883 11.1668C157.303 10.5409 157.013 9.69691 157.013 8.63499V3.48749H158.441V8.55116C158.441 9.22184 158.622 9.74721 158.983 10.1273C159.344 10.5073 159.841 10.6973 160.476 10.6973C161.209 10.6973 161.789 10.4682 162.215 10.0099C162.642 9.54042 162.855 8.84738 162.855 7.93077Z" fill="white"/>
<path d="M154.31 1.96175C154.037 1.96175 153.807 1.86674 153.621 1.67671C153.435 1.48668 153.342 1.25753 153.342 0.989258C153.342 0.720985 153.435 0.491834 153.621 0.301807C153.807 0.100602 154.037 0 154.31 0C154.573 0 154.797 0.100602 154.983 0.301807C155.169 0.491834 155.262 0.720985 155.262 0.989258C155.262 1.25753 155.169 1.48668 154.983 1.67671C154.797 1.86674 154.573 1.96175 154.31 1.96175ZM155.016 11.8711H153.588V3.48756H155.016V11.8711Z" fill="white"/>
<path d="M148.524 3.26964C149.454 3.26964 150.198 3.57703 150.755 4.19183C151.324 4.80662 151.609 5.62821 151.609 6.65659V11.8712H150.181V6.70689C150.181 6.06974 150.017 5.57232 149.689 5.21462C149.372 4.84574 148.934 4.66131 148.376 4.66131C147.742 4.66131 147.244 4.87928 146.883 5.31522C146.533 5.73999 146.358 6.37155 146.358 7.20991V11.8712H144.93V6.70689C144.93 6.06974 144.771 5.57232 144.454 5.21462C144.148 4.84574 143.727 4.66131 143.191 4.66131C142.567 4.66131 142.058 4.88487 141.665 5.33199C141.282 5.76793 141.09 6.39391 141.09 7.20991V11.8712H139.663V3.48761H141.09V4.611C141.648 3.71676 142.463 3.26964 143.535 3.26964C144.64 3.26964 145.444 3.7447 145.948 4.69484C146.516 3.7447 147.375 3.26964 148.524 3.26964Z" fill="white"/>
<path d="M137.972 8.35007H131.097C131.239 9.08782 131.573 9.66908 132.098 10.0938C132.623 10.5074 133.279 10.7142 134.067 10.7142C135.15 10.7142 135.938 10.3062 136.43 9.49023L137.644 10.1944C136.835 11.4576 135.631 12.0891 134.034 12.0891C132.743 12.0891 131.682 11.6755 130.851 10.8484C130.041 9.99883 129.636 8.94251 129.636 7.67938C129.636 6.40508 130.036 5.35435 130.834 4.52717C131.633 3.68881 132.667 3.26964 133.936 3.26964C135.139 3.26964 136.118 3.70558 136.873 4.57747C137.639 5.427 138.022 6.46656 138.022 7.69615C138.022 7.90853 138.005 8.12651 137.972 8.35007ZM133.936 4.64454C133.181 4.64454 132.546 4.86251 132.032 5.29846C131.529 5.7344 131.217 6.32684 131.097 7.07577H136.578C136.457 6.30448 136.156 5.70645 135.675 5.28169C135.194 4.85692 134.614 4.64454 133.936 4.64454Z" fill="white"/>
<path d="M126.588 3.4875V4.89594C127.058 3.85638 127.912 3.3366 129.148 3.3366V4.86241C128.448 4.82887 127.846 5.0189 127.343 5.43249C126.839 5.84608 126.588 6.51117 126.588 7.42777V11.8711H125.16V3.4875H126.588Z" fill="white"/>
<path d="M115.805 0.133928H119.973C121.023 0.133928 121.904 0.497215 122.615 1.22379C123.326 1.95036 123.682 2.84461 123.682 3.90653C123.682 4.96844 123.326 5.86269 122.615 6.58926C121.904 7.31584 121.023 7.67913 119.973 7.67913H117.331V11.8709H115.805V0.133928ZM117.331 6.22039H119.973C120.619 6.22039 121.144 6.00242 121.548 5.56647C121.964 5.10817 122.172 4.55485 122.172 3.90653C122.172 3.23584 121.964 2.68253 121.548 2.24658C121.133 1.81064 120.608 1.59267 119.973 1.59267H117.331V6.22039Z" fill="white"/>
<path d="M107.113 5.35426C106.397 5.35426 105.795 5.10557 105.309 4.6082C104.822 4.11083 104.579 3.51106 104.579 2.80889C104.579 2.10672 104.822 1.50695 105.309 1.00958C105.795 0.482955 106.397 0.219642 107.113 0.219642C107.8 0.219642 108.387 0.482955 108.874 1.00958C109.36 1.50695 109.604 2.10672 109.604 2.80889C109.604 3.51106 109.36 4.11083 108.874 4.6082C108.387 5.10557 107.8 5.35426 107.113 5.35426ZM108.959 31.2907H105.223V9.34785H108.959V31.2907Z" fill="white"/>
<path d="M95.8249 13.1218V0.570535H99.5615V31.2905H95.8249V27.5163C93.9924 30.4128 91.2866 31.861 87.7075 31.861C84.6724 31.861 82.1097 30.7492 80.0195 28.5257C77.9007 26.2729 76.8413 23.5373 76.8413 20.3191C76.8413 17.13 77.9007 14.4091 80.0195 12.1563C82.1384 9.90354 84.701 8.77715 87.7075 8.77715C91.2866 8.77715 93.9924 10.2254 95.8249 13.1218ZM88.1799 28.1746C90.356 28.1746 92.1742 27.4285 93.6345 25.9364C95.0948 24.3858 95.8249 22.5133 95.8249 20.3191C95.8249 18.0955 95.0948 16.2377 93.6345 14.7456C92.1742 13.2242 90.356 12.4635 88.1799 12.4635C86.0325 12.4635 84.2286 13.2242 82.7683 14.7456C81.308 16.2377 80.5779 18.0955 80.5779 20.3191C80.5779 22.5133 81.308 24.3858 82.7683 25.9364C84.2286 27.4285 86.0325 28.1746 88.1799 28.1746Z" fill="white"/>
<path d="M68.6185 20.9774V9.34775H72.3551V31.2906H68.6185V28.1308C67.1296 30.6176 64.8103 31.8611 61.6607 31.8611C59.141 31.8611 57.1223 31.0565 55.6048 29.4474C54.0872 27.809 53.3285 25.6001 53.3285 22.8206V9.34775H57.0651V22.6012C57.0651 24.3566 57.5375 25.7317 58.4824 26.7265C59.4273 27.7212 60.7301 28.2186 62.3908 28.2186C64.3092 28.2186 65.8268 27.6188 66.9435 26.4193C68.0602 25.1905 68.6185 23.3765 68.6185 20.9774Z" fill="white"/>
<path d="M44.403 13.1219V9.34773H48.1396V31.2905H44.403V27.5164C42.5705 30.4128 39.8647 31.8611 36.2856 31.8611C33.2505 31.8611 30.6878 30.7493 28.5976 28.5257C26.4788 26.273 25.4193 23.5374 25.4193 20.3191C25.4193 17.1301 26.4788 14.4092 28.5976 12.1564C30.7164 9.90361 33.2791 8.77721 36.2856 8.77721C39.8647 8.77721 42.5705 10.2254 44.403 13.1219ZM36.758 28.1747C38.9341 28.1747 40.7523 27.4286 42.2126 25.9365C43.6729 24.3859 44.403 22.5134 44.403 20.3191C44.403 18.0956 43.6729 16.2378 42.2126 14.7457C40.7523 13.2243 38.9341 12.4636 36.758 12.4636C34.6105 12.4636 32.8066 13.2243 31.3464 14.7457C29.8861 16.2378 29.1559 18.0956 29.1559 20.3191C29.1559 22.5134 29.8861 24.3859 31.3464 25.9365C32.8066 27.4286 34.6105 28.1747 36.758 28.1747Z" fill="white"/>
<path d="M11.3816 31.861C8.57558 31.861 6.17041 31.2027 4.1661 29.8861C2.19042 28.5403 0.801724 26.6825 0 24.3126L3.43596 22.2939C4.58128 26.0095 7.25846 27.8674 11.4675 27.8674C13.5005 27.8674 15.0609 27.4431 16.149 26.5947C17.2657 25.7462 17.824 24.5906 17.824 23.1277C17.824 21.6941 17.28 20.597 16.192 19.8363C15.2184 19.1634 13.4002 18.3881 10.7374 17.5104L7.85975 16.5449C7.22983 16.2816 6.39947 15.9012 5.36868 15.4039C4.36653 14.8772 3.63639 14.3506 3.17826 13.824C1.91841 12.4196 1.28848 10.7081 1.28848 8.68935C1.28848 5.9977 2.20474 3.89119 4.03725 2.36982C5.86976 0.789941 8.10313 0 10.7374 0C13.0853 0 15.1468 0.59977 16.9221 1.79931C18.6973 2.99885 20.0288 4.63725 20.9164 6.7145L17.5663 8.68935C16.2779 5.52959 14.0015 3.94971 10.7374 3.94971C9.10529 3.94971 7.78817 4.35931 6.78602 5.1785C5.78386 5.9977 5.28279 7.10947 5.28279 8.51381C5.28279 9.85964 5.75523 10.8836 6.70012 11.5858C7.67364 12.3172 9.30572 13.0487 11.5964 13.7801L13.3573 14.3506C14.3308 14.7309 14.8605 14.9357 14.9464 14.965C15.8627 15.3161 16.8648 15.7988 17.9529 16.4132C18.726 16.8521 19.4991 17.525 20.2722 18.432C21.2743 19.456 21.7754 20.992 21.7754 23.04C21.7754 25.7316 20.8162 27.882 18.8978 29.4911C16.9507 31.071 14.4453 31.861 11.3816 31.861Z" fill="white"/>
</svg>
