<svg width="56" height="56" viewBox="0 0 56 56" fill="none" xmlns="http://www.w3.org/2000/svg">
<rect width="56" height="56" rx="28" fill="white"/>
<path d="M29.131 17.0011C29.9336 16.998 30.7363 17.0061 31.5388 17.0253L31.7522 17.033C31.9986 17.0418 32.2417 17.0528 32.5353 17.066C33.7057 17.121 34.5043 17.3058 35.205 17.5775C35.9309 17.8569 36.5425 18.2353 37.1541 18.8468C37.7133 19.3964 38.1461 20.0611 38.4223 20.7949C38.694 21.4956 38.8788 22.2952 38.9338 23.4656C38.947 23.7582 38.958 24.0024 38.9668 24.2488L38.9734 24.4622C38.993 25.2642 39.0014 26.0666 38.9987 26.8689L38.9998 27.6894V29.1304C39.0025 29.9331 38.9941 30.7358 38.9745 31.5382L38.9679 31.7516C38.9591 31.998 38.9481 32.2411 38.9349 32.5348C38.8799 33.7051 38.6929 34.5037 38.4223 35.2044C38.147 35.9389 37.7141 36.6042 37.1541 37.1535C36.6041 37.7127 35.939 38.1454 35.205 38.4218C34.5043 38.6935 33.7057 38.8783 32.5353 38.9333C32.2417 38.9465 31.9986 38.9575 31.7522 38.9663L31.5388 38.9729C30.7363 38.9924 29.9336 39.0009 29.131 38.9982L28.3104 38.9993H26.8705C26.0679 39.002 25.2652 38.9935 24.4627 38.974L24.2493 38.9674C23.9882 38.9579 23.7271 38.9469 23.4662 38.9344C22.2958 38.8794 21.4972 38.6924 20.7954 38.4218C20.0614 38.1461 19.3966 37.7132 18.8474 37.1535C18.2876 36.6039 17.8544 35.9387 17.5781 35.2044C17.3064 34.5037 17.1216 33.7051 17.0666 32.5348C17.0543 32.2738 17.0433 32.0127 17.0336 31.7516L17.0281 31.5382C17.0078 30.7358 16.9986 29.9331 17.0006 29.1304V26.8689C16.9975 26.0666 17.0056 25.2642 17.0248 24.4622L17.0325 24.2488C17.0413 24.0024 17.0523 23.7582 17.0655 23.4656C17.1205 22.2941 17.3053 21.4967 17.577 20.7949C17.8535 20.0608 18.2875 19.3962 18.8485 18.8479C19.3973 18.2878 20.0617 17.8542 20.7954 17.5775C21.4972 17.3058 22.2947 17.121 23.4662 17.066L24.2493 17.033L24.4627 17.0275C25.2648 17.0072 26.0671 16.9981 26.8694 17L29.131 17.0011ZM28.0002 22.5009C27.2715 22.4906 26.548 22.6252 25.8717 22.897C25.1955 23.1687 24.58 23.5722 24.0611 24.0838C23.5421 24.5955 23.13 25.2052 22.8487 25.8775C22.5675 26.5499 22.4226 27.2714 22.4226 28.0002C22.4226 28.729 22.5675 29.4505 22.8487 30.1228C23.13 30.7951 23.5421 31.4049 24.0611 31.9165C24.58 32.4282 25.1955 32.8316 25.8717 33.1034C26.548 33.3751 27.2715 33.5098 28.0002 33.4994C29.4588 33.4994 30.8577 32.92 31.8892 31.8886C32.9206 30.8572 33.5 29.4583 33.5 27.9996C33.5 26.541 32.9206 25.1421 31.8892 24.1107C30.8577 23.0793 29.4588 22.5009 28.0002 22.5009ZM28.0002 24.7008C28.4385 24.6928 28.8741 24.7721 29.2814 24.9343C29.6888 25.0964 30.0597 25.3381 30.3726 25.6452C30.6855 25.9523 30.934 26.3187 31.1037 26.723C31.2734 27.1272 31.3608 27.5612 31.3609 27.9996C31.361 28.438 31.2737 28.8721 31.1041 29.2764C30.9346 29.6807 30.6861 30.0471 30.3734 30.3544C30.0606 30.6616 29.6897 30.9034 29.2825 31.0657C28.8752 31.228 28.4396 31.3075 28.0013 31.2995C27.1261 31.2995 26.2868 30.9519 25.6679 30.333C25.0491 29.7142 24.7014 28.8748 24.7014 27.9996C24.7014 27.1245 25.0491 26.2851 25.6679 25.6663C26.2868 25.0474 27.1261 24.6997 28.0013 24.6997L28.0002 24.7008ZM33.775 20.851C33.4201 20.8652 33.0846 21.0161 32.8385 21.2722C32.5925 21.5283 32.455 21.8697 32.455 22.2248C32.455 22.58 32.5925 22.9213 32.8385 23.1774C33.0846 23.4335 33.4201 23.5845 33.775 23.5987C34.1397 23.5987 34.4894 23.4538 34.7472 23.196C35.0051 22.9381 35.15 22.5884 35.15 22.2237C35.15 21.8591 35.0051 21.5093 34.7472 21.2515C34.4894 20.9936 34.1397 20.8488 33.775 20.8488V20.851Z" fill="#005430"/>
</svg>
