<svg width="255" height="48" viewBox="0 0 255 48" fill="none" xmlns="http://www.w3.org/2000/svg">
<rect width="48" height="48" rx="24" fill="#005430"/>
<path d="M36.9995 20.5512C36.9958 19.9414 36.7596 18.2989 36.6996 17.7479C36.6398 17.1969 36.5795 16.697 36.594 16.5799C36.6083 16.4669 36.7819 16.737 36.8737 16.7588C36.9211 16.7493 36.8999 16.5787 36.8137 16.4331C36.7553 16.3342 36.5562 15.9644 36.4355 15.7477C36.3786 15.6452 36.366 15.5857 36.3386 15.5731C36.3114 15.5605 36.0916 16.0046 36.1156 16.0538C36.1756 16.144 36.2168 16.1871 36.2261 16.3465C36.2356 16.5059 36.3179 17.644 36.4228 18.5066C36.5018 19.1574 36.6751 20.5595 36.6812 21.4313C36.683 21.7156 36.6515 21.9867 36.6137 22.0999C36.5166 22.2778 36.365 22.4382 35.8004 22.769C35.1656 23.141 34.3188 23.4506 33.9548 23.6578C33.7285 23.787 33.8036 23.8043 34.0006 23.7477C34.1971 23.6912 35.2134 23.5099 35.7072 23.301C36.1707 23.1044 36.4715 22.7755 36.6999 22.2957C36.9819 21.7024 37.0034 21.199 36.9995 20.5512Z" fill="white"/>
<path d="M35.0343 15.9181C35.0833 15.8991 35.4896 15.8781 35.5989 15.9007C35.5271 16.0035 35.04 16.2312 35.0379 16.273C35.0512 16.3011 35.3743 16.221 35.4763 16.1764C35.5429 16.1363 35.5874 16.0741 35.6367 16.0226C35.7532 15.8884 35.8914 15.6395 35.8565 15.6083C35.8 15.5579 35.2463 15.5892 35.1734 15.5996C35.1245 15.6066 35.0004 15.8293 34.9776 15.8865C34.9553 15.9436 34.9852 15.9372 35.0343 15.9181Z" fill="white"/>
<path d="M35.8638 19.5338C35.9485 19.2467 35.9694 18.8983 35.8542 18.5316C35.7358 18.154 35.4418 17.9238 35.2297 17.8059L35.1919 18.1694C35.1919 18.1694 35.4893 18.3174 35.6926 18.6899C35.8214 18.9263 35.8751 19.2604 35.7733 19.633C35.7564 19.7255 35.8224 19.6745 35.8638 19.5338Z" fill="white"/>
<path d="M32.7183 21.3556C32.7946 21.097 32.8133 20.7833 32.7098 20.4531C32.6031 20.113 32.3384 19.9057 32.1473 19.8L32.1132 20.1271C32.1132 20.1271 32.3809 20.2604 32.564 20.5956C32.6802 20.8082 32.7283 21.1096 32.637 21.445C32.6218 21.5279 32.6811 21.4822 32.7183 21.3556Z" fill="white"/>
<path d="M21.7964 16.4061C21.9188 16.6304 21.9696 16.948 21.8733 17.3018C21.8571 17.3896 21.9195 17.3414 21.9592 17.2078C22.0393 16.9353 22.0592 16.6042 21.9497 16.2556C21.8372 15.8968 21.5579 15.6784 21.3564 15.5666L21.3208 15.9118C21.3208 15.9118 21.6033 16.0523 21.7964 16.4061Z" fill="white"/>
<path d="M14.4234 16.5226C14.5263 16.764 14.5333 17.09 14.3671 17.4334C14.3348 17.5197 14.4135 17.4788 14.4795 17.3498C14.6143 17.0859 14.6899 16.7557 14.6216 16.3909C14.5515 16.0158 14.2701 15.7602 14.0595 15.6217L13.9639 15.9644C13.9639 15.9644 14.2612 16.142 14.4234 16.5226Z" fill="white"/>
<path d="M16.4614 21.9202C16.5921 21.6773 16.6466 21.5137 16.7047 21.226C16.7555 20.9728 16.7588 20.6804 16.7404 20.3827C17.1316 20.223 17.5978 19.958 17.7545 19.9385C17.6474 20.3068 17.9031 20.7043 18.4196 20.6524C18.4592 21.0689 18.4931 21.4348 18.5137 21.6518C18.5557 22.0966 18.5494 22.6571 18.5482 22.7545C18.5464 22.8524 18.6171 22.8339 18.6898 22.6159C18.7866 22.3241 18.8165 21.5619 18.7814 21.058C18.773 20.932 18.7588 20.7619 18.7415 20.568C19.0764 20.4129 19.1321 20.1134 19.2573 19.9858C19.3703 20.3821 19.9922 20.4359 20.1842 20.3511C20.4222 20.2457 20.5002 20.0563 20.5614 19.6166C20.6228 19.1771 20.444 19.0001 20.3801 18.9522C20.3738 19.0054 20.218 19.522 20.218 19.522C20.218 19.522 20.3657 19.6781 20.3731 19.7549C20.2529 19.8639 19.9992 19.8706 19.7862 19.8012C19.573 19.7318 19.5076 19.604 19.5203 19.5183C19.5326 19.4323 19.6129 19.3541 19.6156 19.2493C19.6179 19.1446 19.5678 19.1749 19.4825 19.2676C19.3972 19.3605 19.3421 19.444 19.224 19.6434C19.1275 19.8065 18.9708 20.0054 18.6945 20.0623C18.649 19.5835 18.5969 19.0741 18.5621 18.7541C18.5439 18.5852 18.362 17.1254 18.3491 16.962C18.3378 16.8197 18.3168 16.652 18.3203 16.5732C18.3237 16.5105 18.363 16.5354 18.4238 16.601C18.4847 16.6665 18.5912 16.7808 18.6096 16.7718C18.6716 16.7414 18.6081 16.5516 18.5269 16.3817C18.4459 16.2113 18.1693 15.5391 18.1112 15.5114C18.0813 15.4974 17.8946 15.9111 17.8835 15.9926C17.9124 16.0435 17.9881 16.1237 17.9908 16.3516C17.9917 16.4152 18.0326 17.0147 18.0892 17.5816C18.1388 18.0822 18.2044 18.5572 18.2108 18.6124C18.2559 18.9945 18.3106 19.5331 18.3627 20.0626C18.0628 20.0054 17.983 19.8074 17.9897 19.6944C17.9973 19.5669 18.0547 19.4231 18.0272 19.3905C17.9694 19.3558 17.6257 19.5482 17.1463 19.7549C17.0115 19.8129 16.8596 19.8752 16.6993 19.9342C16.6575 19.5734 16.6024 19.2303 16.5803 18.9679L16.5776 18.9387C16.8928 18.9183 17.1509 18.7589 17.2684 18.6072C17.4151 18.4174 17.5176 18.027 17.5276 17.7278C17.5375 17.4283 17.2962 16.8808 17.2388 16.7068C17.1808 16.5326 17.1509 16.4119 17.1459 16.3516C17.1406 16.2914 17.2763 16.4214 17.3616 16.4469C17.4193 16.4585 17.3994 16.3332 17.3288 16.2472C17.2587 16.1615 16.8795 15.5853 16.8529 15.6257C16.8366 15.6494 16.6847 16.0733 16.6748 16.1382C16.7346 16.1777 16.8045 16.2867 16.8094 16.3912C16.8145 16.4957 16.898 16.955 16.9906 17.2102C17.0835 17.4654 17.2813 17.955 17.2938 18.0897C17.1525 18.1895 16.8308 18.3584 16.5125 18.3483C16.4581 17.9017 16.3891 17.3831 16.3522 17.0158C16.338 16.8738 16.337 16.7223 16.3393 16.6432C16.341 16.5805 16.3861 16.5891 16.4481 16.6536C16.5105 16.7181 16.6061 16.8118 16.6257 16.8051C16.6684 16.7909 16.6314 16.6486 16.5467 16.4797C16.4621 16.3108 16.1256 15.5962 16.0666 15.5696C16.0367 15.556 15.886 15.9572 15.8765 16.0391C15.9066 16.0898 15.9837 16.1682 15.9913 16.3962C15.9973 16.5777 16.0856 17.4673 16.1612 18.2508C15.8463 18.0878 15.7388 17.8547 15.6999 17.4634C15.6727 17.1906 15.67 16.688 15.5728 16.2677C15.5181 16.0301 15.4027 15.7886 15.266 15.6604C15.2334 15.7394 15.0878 16.2242 15.0878 16.2242C15.1353 16.3634 15.2829 16.8321 15.2779 17.2382C15.2729 17.6443 15.241 18.0413 14.7865 18.3149C14.3323 18.5885 13.651 18.4797 13.4828 18.0528C13.3146 17.6255 13.6885 16.5544 13.6836 16.3015C13.6785 16.0487 13.6334 16.0138 13.5279 16.0556C13.4225 16.0973 13.2068 16.3411 13.021 16.7377C12.8352 17.1346 12.7526 17.6261 12.6471 17.9603C12.5418 18.2945 12.3733 18.6331 12.1125 18.6143C11.8517 18.5959 11.7113 18.3569 11.6311 18.0113C11.5507 17.6654 11.5999 17.2099 11.6217 17.0931C11.6762 16.8007 11.55 16.8606 11.4728 17.3198C11.425 17.603 11.3775 18.0553 11.5458 18.5286C11.7137 19.002 12 19.1785 12.2508 19.118C12.5018 19.0578 12.7224 18.4684 12.8002 18.2037C12.8779 17.9394 13.2256 16.7654 13.4225 16.7077C13.45 16.84 13.2695 17.2665 13.2117 17.7653C13.1541 18.2642 13.2885 18.9343 13.9208 19.0502C14.5532 19.1662 14.9822 18.7556 15.1378 18.4705C15.2935 18.1849 15.3662 17.8856 15.3837 17.7348C15.404 18.1175 15.6648 18.7151 16.1713 18.8855L16.2236 18.9006C16.2547 19.2138 16.3055 19.6228 16.3522 20.0522C16.2536 20.0826 16.1541 20.1102 16.055 20.1339C16.0424 20.0928 16.0284 20.0525 16.0115 20.0154C15.8569 19.6824 15.601 19.3754 15.2464 19.3967C14.8841 19.4182 14.4891 19.9023 14.5064 20.2558C14.5178 20.4936 14.6485 20.6888 15.1239 20.7387C15.341 20.7617 15.5716 20.7375 15.8097 20.6855C15.8433 20.7838 15.8645 20.8816 15.8669 20.9706C15.7162 21.147 14.4697 22.0885 13.5363 22.179C12.6029 22.2694 12.3182 21.7795 12.3089 21.2877C12.3019 20.9135 12.5266 20.54 12.6846 20.2816C12.9105 20.1161 13.096 19.909 13.2131 19.7493C13.2449 19.769 13.2752 19.7871 13.304 19.804C13.4155 19.8689 13.46 19.9659 13.46 19.9659C13.4806 19.9342 13.5765 19.7614 13.539 19.6768C13.5217 19.656 13.4374 19.604 13.3359 19.5423C13.4424 19.2766 13.441 19.0112 13.303 18.9522C13.1487 18.8864 12.9473 19.0692 12.8604 19.1807C12.8153 19.2388 12.798 19.3045 12.7977 19.3598C12.7971 19.4308 12.8305 19.495 12.9131 19.5521C12.9954 19.6084 13.0718 19.6594 13.1437 19.7054C12.9397 19.9199 12.4576 20.2341 12.1626 20.4187C12.1517 20.3916 12.1085 20.4202 12.0504 20.4888L11.9705 20.5381C11.7352 20.6823 11.1709 20.9989 11.0599 21.0764C10.9488 21.1541 11.0185 21.14 11.0599 21.1227C11.1383 21.0804 11.2411 21.0291 11.3567 20.9725C11.5203 20.8924 11.7107 20.8017 11.8968 20.7107C11.8417 20.8042 11.7847 20.9135 11.7342 21.0328C11.5122 21.5577 11.1533 22.6457 11.9297 23.3003C12.6725 23.9269 13.9493 23.6885 15.0082 23.0373C16.0672 22.3859 16.2959 22.1569 16.4614 21.9202ZM13.009 19.3322C12.9723 19.3051 12.9672 19.2689 12.9971 19.2437C13.0352 19.2112 13.084 19.1804 13.1394 19.17C13.2568 19.1482 13.3036 19.2833 13.2565 19.4937C13.1672 19.439 13.0754 19.3816 13.009 19.3322ZM15.4378 20.2196C14.8987 20.2221 14.8738 20.1241 14.884 20.0614C14.8939 19.999 15.0618 19.8277 15.2748 19.9407C15.3649 19.9886 15.4663 20.0888 15.5602 20.2147C15.5187 20.2177 15.4779 20.2193 15.4378 20.2196ZM13.7865 23.0588C12.7678 23.3372 11.7741 22.9059 11.714 22.0519C11.6679 21.3998 11.9055 20.9084 12.0587 20.6315C12.2047 20.5591 12.3427 20.4888 12.4568 20.4258C12.1902 20.8558 12.0341 21.4317 12.1384 21.9196C12.2565 22.4722 12.7366 22.8073 13.5496 22.6992C14.3544 22.5923 15.4428 21.8258 15.7513 21.5367C15.8453 21.4324 15.9074 21.3384 15.9919 21.1467C16.0267 21.0681 16.0756 20.9642 16.0938 20.8468C16.1057 20.7704 16.112 20.6886 16.1134 20.6054C16.2079 20.5771 16.3029 20.5455 16.3984 20.5115C16.4309 20.8613 16.4548 21.2062 16.4562 21.5045C15.9547 22.0935 14.8052 22.7803 13.7865 23.0588Z" fill="white"/>
<path d="M31.6045 20.8194C31.57 20.248 31.4868 19.2138 31.4403 18.6892C31.3991 18.2222 31.3183 17.5823 31.2591 17.0189C31.2442 16.8771 31.2426 16.7413 31.2442 16.6623C31.2459 16.5999 31.3083 16.624 31.3706 16.6881C31.433 16.7523 31.5305 16.8329 31.5488 16.8231C31.6098 16.7914 31.5368 16.6349 31.4512 16.4666C31.3656 16.298 31.0261 15.6004 30.9671 15.5739C30.937 15.5605 30.778 15.9783 30.7688 16.0602C30.7992 16.1106 30.8769 16.1887 30.8853 16.4166C30.8938 16.6448 31.0089 17.6935 31.092 18.5416C31.1496 19.1312 31.2239 20.0931 31.2781 20.8185C31.2754 20.8197 31.3292 21.5081 31.335 21.5855C31.3683 22.0309 31.351 22.5913 31.3477 22.6886C31.344 22.7863 31.4154 22.7693 31.492 22.5524C31.57 22.3311 31.6145 21.8367 31.6205 21.3905L31.6045 20.8194Z" fill="white"/>
<path d="M28.7121 18.8181C28.6077 18.85 28.4437 18.7394 28.4562 18.5075C28.4676 18.298 28.5572 18.1018 28.5917 17.978C28.6392 17.8072 28.6395 17.6425 28.5993 17.7358C28.5088 17.9445 28.3403 18.3478 28.3054 18.6215C28.2705 18.8952 28.3591 19.0716 28.4795 19.1318C28.6295 19.2072 28.7376 19.0875 28.8107 18.9111C28.881 18.7422 28.8677 18.545 28.819 18.5915C28.7781 18.64 28.7629 18.8024 28.7121 18.8181Z" fill="white"/>
<path d="M27.2105 19.6615C27.2659 19.5141 27.2789 19.3696 27.2363 19.4489C27.1403 19.6264 26.9603 19.9696 26.9076 20.2079C26.8551 20.4463 26.9189 20.6076 27.0201 20.6687C27.1464 20.7452 27.2504 20.6472 27.3291 20.497C27.4042 20.3533 27.408 20.1788 27.3618 20.2166C27.3219 20.2564 27.2955 20.3981 27.2499 20.4085C27.1551 20.4295 27.02 20.321 27.0493 20.1177C27.0758 19.9346 27.1703 19.768 27.2105 19.6615Z" fill="white"/>
<path d="M22.8385 22.7705C22.9311 22.62 22.9772 22.464 22.9129 22.5428C22.7695 22.7189 22.4981 23.0607 22.3886 23.3114C22.2794 23.5621 22.3142 23.7503 22.4116 23.836C22.533 23.943 22.6683 23.8551 22.7865 23.7058C22.8999 23.5626 22.9424 23.3728 22.883 23.4051C22.8309 23.4416 22.7714 23.5915 22.7191 23.5943C22.6113 23.5996 22.4869 23.4558 22.5632 23.2393C22.6322 23.0439 22.7716 22.8795 22.8385 22.7705Z" fill="white"/>
<path d="M30.504 18.3796C30.3978 18.4063 30.2408 18.2871 30.2671 18.0561C30.291 17.8476 30.3924 17.6564 30.434 17.5348C30.492 17.3665 30.5019 17.2022 30.4562 17.2931C30.3537 17.497 30.1612 17.8908 30.1098 18.1625C30.0584 18.4339 30.1361 18.6146 30.2528 18.681C30.3984 18.7636 30.513 18.6499 30.5969 18.4773C30.6771 18.3123 30.6759 18.1149 30.6241 18.1588C30.5806 18.2054 30.5557 18.3667 30.504 18.3796Z" fill="white"/>
<path d="M30.4714 21.2137C30.6166 21.2963 30.7318 21.1826 30.8154 21.01C30.8955 20.8451 30.8944 20.6476 30.8429 20.6915C30.7991 20.7378 30.7743 20.8994 30.7225 20.9123C30.6163 20.9388 30.459 20.8199 30.4856 20.5888C30.5095 20.3803 30.6108 20.189 30.6526 20.0675C30.7103 19.8992 30.7203 19.7347 30.6747 19.8258C30.5718 20.0297 30.3797 20.4236 30.3283 20.6949C30.2769 20.9667 30.3546 21.1473 30.4714 21.2137Z" fill="white"/>
<path d="M32.328 17.5928C32.3979 17.3891 32.41 17.1903 32.3546 17.3003C32.2302 17.547 31.9976 18.0235 31.9352 18.3524C31.8732 18.681 31.9673 18.8995 32.1087 18.9799C32.2845 19.0798 32.4236 18.9423 32.525 18.7336C32.6217 18.5339 32.6203 18.2947 32.5579 18.3482C32.5052 18.4043 32.475 18.5994 32.4123 18.6151C32.2842 18.6473 32.0938 18.5033 32.1259 18.2238C32.1549 17.9715 32.2775 17.7401 32.328 17.5928Z" fill="white"/>
<path d="M17.4893 21.1161C17.6037 20.8679 17.6452 20.6194 17.561 20.7517C17.3725 21.0478 17.0176 21.6211 16.8964 22.0273C16.775 22.4335 16.8649 22.7189 17.0318 22.836C17.2401 22.9813 17.433 22.8237 17.5876 22.573C17.7356 22.3326 17.765 22.0315 17.6797 22.0917C17.6061 22.1562 17.5425 22.3985 17.4618 22.4113C17.2959 22.4373 17.0757 22.2349 17.1526 21.8869C17.2222 21.5729 17.4067 21.2957 17.4893 21.1161Z" fill="white"/>
<path d="M33.5109 23.5771C33.5986 23.5052 34.361 23.094 34.5014 23.0105C34.5014 23.0105 34.645 22.776 34.6019 22.7511C34.5587 22.7262 34.2803 22.9797 34.1072 22.9867C33.9339 22.9937 33.6967 22.8663 33.6891 22.7618C33.7116 22.683 33.92 22.5646 33.9953 22.5598C34.0707 22.5554 34.0585 22.7271 34.0836 22.7481C34.1088 22.7687 34.209 22.6295 34.2216 22.5715C34.234 22.5136 34.2237 22.2713 34.0858 22.306C33.8676 22.3613 33.5384 22.7665 33.5009 22.894C33.4631 23.0217 33.6665 23.1329 33.8149 23.1934C33.8023 23.1981 33.6915 23.2515 33.6214 23.3209C33.6214 23.3209 33.546 23.4054 33.5109 23.5771Z" fill="white"/>
<path d="M30.9112 24.085C30.9989 24.013 31.7613 23.6021 31.9017 23.5183C31.9017 23.5183 32.0455 23.2838 32.0022 23.2589C31.959 23.234 31.6806 23.4875 31.5075 23.4945C31.3342 23.5016 31.097 23.3741 31.0894 23.2696C31.1118 23.1908 31.3203 23.0724 31.3956 23.0679C31.4709 23.0632 31.4587 23.2348 31.4839 23.2556C31.5091 23.2765 31.6092 23.1373 31.6219 23.0793C31.6342 23.0215 31.6236 22.7791 31.4861 22.8138C31.2679 22.8694 30.9387 23.2743 30.9012 23.4021C30.8634 23.5295 31.0667 23.6407 31.2149 23.7013C31.2025 23.7059 31.0917 23.7591 31.0216 23.8287C31.0216 23.8287 30.9463 23.9133 30.9112 24.085Z" fill="white"/>
<path d="M25.0549 16.7138C25.1232 16.7933 25.5711 17.3631 25.9219 17.7213C26.2726 18.0798 26.8738 18.66 27.3155 19.0576C27.401 19.1347 27.4916 19.2182 27.5839 19.3051C27.6953 20.1616 27.8241 21.2514 27.8783 21.7021C27.9316 22.1459 27.9395 22.7063 27.9406 22.8038C27.9416 22.9016 28.0118 22.8816 28.0786 22.6623C28.1682 22.368 28.1785 21.6058 28.131 21.1024C28.1015 20.7915 28.0321 20.2092 27.9648 19.6722C28.2256 19.9302 28.472 20.1862 28.638 20.3778C28.9433 20.7296 29.2001 20.9949 29.3567 21.373C29.4674 21.6406 29.4562 21.8534 29.5016 21.8955C29.5409 21.9318 29.5842 21.6117 29.5358 21.3013C29.4573 20.7971 29.3497 20.5834 28.7034 19.8636C28.4568 19.5884 28.1666 19.3008 27.8828 19.032C27.8719 18.9491 27.862 18.8723 27.8529 18.8042C27.8305 18.6358 27.6114 17.1804 27.5942 17.0173C27.5795 16.8754 27.5537 16.7082 27.5557 16.6292C27.5573 16.5664 27.5972 16.5908 27.6599 16.655C27.7222 16.719 27.8314 16.8311 27.8499 16.8213C27.911 16.7897 27.843 16.6017 27.7573 16.4331C27.672 16.2647 27.3782 15.5987 27.3191 15.5723C27.2892 15.5588 27.1131 15.9765 27.1041 16.0583C27.1346 16.1087 27.2122 16.1872 27.2206 16.4149C27.2229 16.4785 27.2793 17.0771 27.35 17.6423C27.4127 18.1418 27.4902 18.6154 27.4983 18.6702L27.4986 18.6745C27.206 18.4073 26.9482 18.1803 26.7918 18.0378C26.4263 17.705 25.6189 16.9155 25.5864 16.7973C25.5792 16.7599 25.6418 16.7829 25.757 16.8014C25.8727 16.82 25.9756 16.8594 25.9571 16.8025C25.9487 16.7757 25.9044 16.7095 25.7941 16.6412C25.6836 16.5728 25.4006 16.3955 25.1902 16.2701C24.9792 16.1449 24.8748 16.0398 24.8312 16.0699C24.8097 16.0847 24.8289 16.5138 24.8415 16.5673C24.8942 16.5718 24.9868 16.6339 25.0549 16.7138Z" fill="white"/>
<path d="M25.6315 15.9427C25.718 15.9236 26.1282 15.9341 26.2771 15.9654C26.2148 16.0088 25.7951 16.2211 25.7122 16.2716C25.6297 16.3223 25.6088 16.3516 25.6503 16.3466C25.7706 16.3132 26.0417 16.2716 26.1716 16.2038C26.2941 16.1463 26.5028 15.8662 26.584 15.7618C26.6647 15.6573 26.6647 15.6051 26.6441 15.5772C26.5612 15.532 26.0266 15.4868 25.7688 15.5508C25.6975 15.5993 25.5579 15.8576 25.5373 15.9113C25.5167 15.9654 25.5449 15.9617 25.6315 15.9427Z" fill="white"/>
<path d="M27.9124 15.9098C27.9823 15.8945 28.3129 15.9028 28.4327 15.928C28.3826 15.963 28.0445 16.1341 27.9778 16.1752C27.9108 16.2157 27.8942 16.2395 27.9276 16.2354C28.0246 16.2087 28.2431 16.1752 28.3477 16.1202C28.4463 16.0739 28.6146 15.8482 28.6799 15.7642C28.745 15.6798 28.745 15.6379 28.7283 15.6155C28.6619 15.5787 28.231 15.5424 28.0232 15.5941C27.9656 15.6331 27.8534 15.8413 27.8367 15.8846C27.8198 15.928 27.8428 15.9252 27.9124 15.9098Z" fill="white"/>
<path d="M29.7673 15.8844C29.837 15.8691 30.1675 15.8774 30.2873 15.9026C30.2375 15.9376 29.8993 16.1088 29.8324 16.1495C29.7657 16.1904 29.7491 16.2141 29.7825 16.21C29.8795 16.1833 30.115 16.1495 30.2196 16.0948C30.3184 16.0485 30.4353 15.8228 30.5007 15.7385C30.566 15.6544 30.566 15.6122 30.5491 15.5901C30.4826 15.5533 30.0856 15.517 29.8781 15.5684C29.8205 15.6077 29.708 15.8159 29.6914 15.8592C29.6747 15.9026 29.6974 15.8998 29.7673 15.8844Z" fill="white"/>
<path d="M28.6103 16.7906C28.5005 16.9638 28.6382 17.1036 28.6884 17.2435C28.6206 17.3054 28.5165 17.2489 28.4817 17.1945C28.4076 17.083 28.4325 16.8558 28.3453 16.8208C28.323 16.8822 28.3084 16.9503 28.3084 16.9503C28.3084 16.9503 28.3747 17.1057 28.3581 17.2086C28.3475 17.2707 28.2927 17.3432 28.2204 17.3447C28.0277 17.3494 28.1226 17.0637 28.0482 16.9018C28.033 16.9414 28.0221 16.9839 28.0044 17.0209C28.018 17.0631 28.0254 17.1223 28.0277 17.1564C28.0321 17.2243 28.0267 17.2974 28.0383 17.3553C28.0542 17.4372 28.0997 17.4915 28.169 17.4968C28.313 17.5082 28.3787 17.3914 28.4003 17.2956C28.4252 17.3933 28.6156 17.501 28.7093 17.381C28.8333 17.2228 28.7341 17.0873 28.6705 16.9384C28.6246 16.8284 28.6379 16.7562 28.6103 16.7906Z" fill="white"/>
<path d="M23.2003 16.3306C23.2102 16.4018 23.2468 16.4505 23.3064 16.4578C23.4296 16.4735 23.4919 16.3755 23.5152 16.294C23.5315 16.3791 23.6907 16.4793 23.7772 16.38C23.8917 16.2486 23.8124 16.1279 23.7646 15.997C23.7304 15.9 23.7451 15.8385 23.7198 15.8671C23.6169 16.0115 23.7291 16.138 23.7657 16.2606C23.7043 16.311 23.6174 16.2581 23.5899 16.2102C23.5313 16.111 23.5633 15.9163 23.4902 15.8825C23.468 15.9346 23.4524 15.9925 23.4524 15.9925C23.4524 15.9925 23.5019 16.1292 23.4826 16.2169C23.4707 16.2701 23.4202 16.3303 23.3576 16.3287C23.1916 16.3251 23.2868 16.0827 23.2302 15.9405C23.2154 15.9737 23.2039 16.0102 23.1866 16.041C23.1966 16.0782 23.2003 16.1292 23.2003 16.1589C23.2015 16.2175 23.1933 16.2799 23.2003 16.3306Z" fill="white"/>
<path d="M27.1283 23.0413C27.1468 23.0118 27.1877 22.931 27.1774 22.8757C27.1671 22.8205 27.0995 22.59 26.9683 22.5323C26.8379 22.4746 26.7392 22.5956 26.6767 22.764L26.6333 22.7629C26.623 22.7878 26.6101 22.825 26.5998 22.8923C26.5852 22.9894 26.5577 23.052 26.3913 23.2032C26.2515 23.3298 25.7982 23.6338 25.5045 23.7766C25.2105 23.9198 24.9989 24.0433 24.9209 24.0808C24.8432 24.1177 24.8658 24.1315 24.9435 24.1082C25.021 24.085 25.4113 23.9592 25.5668 23.895C25.7221 23.8304 25.912 23.7242 26.1408 23.5755C26.3953 23.4102 26.5474 23.2449 26.5985 23.0984C26.6349 22.994 26.6442 22.9522 26.6442 22.9522C26.6442 22.9522 26.7398 23.0088 26.902 23.0458C27.0636 23.0831 27.1095 23.071 27.1283 23.0413ZM26.909 22.7138C26.981 22.7412 27.0248 22.8198 27.0378 22.8674C26.9552 22.8693 26.8031 22.8272 26.7384 22.7979C26.7773 22.7225 26.8451 22.6898 26.909 22.7138Z" fill="white"/>
<path d="M25.4059 23.202C25.1803 23.1707 24.6117 23.0841 24.4726 22.7536C24.5894 22.583 25.1273 22.3671 25.8011 22.165C26.4749 21.9634 27.179 21.7018 27.3683 21.5755C27.4097 21.5614 27.49 21.5657 27.49 21.5657C27.5238 21.468 27.693 21.1248 27.7036 21.053C27.5153 21.0637 26.3545 21.1492 25.8389 21.1768C25.323 21.2047 24.3295 21.1979 23.9984 21.1943C24.2015 21.0481 24.6834 20.7627 25.3721 20.5192C25.4613 20.4875 25.5439 20.4589 25.621 20.4332C25.6783 20.5354 25.7209 20.6365 25.7297 20.7246C25.7736 20.6794 25.8065 20.5299 25.7954 20.3763C26.1969 20.248 26.4037 20.2055 26.493 20.1813C26.5493 20.1082 26.6492 19.8125 26.6641 19.5976C26.6041 19.4882 26.4162 19.3519 26.2491 19.2349C26.0189 19.0738 25.7706 18.9335 25.5227 18.9949C25.1839 19.0781 25.116 19.7013 25.195 19.8335C25.2202 19.8753 25.2798 19.9492 25.3502 20.0405C25.1027 20.1379 24.8438 20.2525 24.6156 20.3729C24.1073 20.6411 23.5398 20.9344 23.3743 21.2164L23.3268 21.2395C23.3135 21.2662 23.2088 21.7027 23.1936 21.7497C23.2993 21.746 24.0886 21.7475 24.6384 21.7304C25.1879 21.7128 25.6683 21.6953 25.8565 21.6953C25.5778 21.7614 24.8475 22.0332 24.6375 22.193C24.4275 22.3533 24.2955 22.597 24.292 23.0146C24.0962 22.9379 23.7324 22.7625 23.4224 22.3426C23.0768 21.8747 23.1483 21.3934 23.01 20.7618C22.809 19.8452 22.3798 19.0714 22.1125 18.8346C22.0225 19.1581 22.0109 19.4019 22.0109 19.4019C22.0109 19.4019 22.3458 20.1432 22.5153 20.6164C22.6848 21.0898 22.8296 21.5562 22.8225 21.6606C22.6829 21.9671 21.8566 22.6091 21.1681 22.9849C20.5151 23.3412 19.9399 23.3796 19.7361 23.1258C19.696 23.0763 19.6688 23.0177 19.6534 22.9514C19.7421 22.9099 19.831 22.8681 19.9222 22.8264C20.5093 22.5586 21.552 21.9948 21.7964 21.699C22.06 21.3405 22.0564 20.8358 21.9017 20.5469C21.7478 20.2581 21.5063 19.9237 21.4874 19.8055C21.4727 19.7497 21.6443 19.8282 21.7456 19.8335C21.7946 19.8298 21.7701 19.7638 21.6648 19.6593C21.5807 19.5761 21.2551 19.3061 21.1307 19.2007C21.0996 19.1739 21.0763 19.1848 21.07 19.213C21.0458 19.3209 20.9962 19.5518 20.9771 19.6657L20.9904 19.7232C21.0261 19.7444 21.0673 19.7683 21.0872 19.8279C21.1154 19.9125 21.214 20.1483 21.3756 20.4461C21.5374 20.7436 21.7713 21.0721 21.7943 21.2379C21.6041 21.4808 20.6449 21.9982 19.7106 22.4245C19.7683 22.2452 19.8595 22.0424 19.9804 21.8172C20.0147 21.7791 20.0461 21.7321 20.0752 21.6791C20.1684 21.5085 20.1774 21.3001 20.1209 21.3442C20.0725 21.3909 20.0377 21.5601 19.9823 21.5715C19.8688 21.5948 19.7096 21.4622 19.7497 21.2198C19.7859 21.001 19.9027 20.8035 19.9532 20.6771C20.0231 20.5022 20.0423 20.3293 19.9893 20.4233C19.8701 20.6334 19.6465 21.0404 19.5778 21.3248C19.5094 21.6087 19.5821 21.8029 19.7019 21.878C19.7467 21.9066 19.7895 21.9155 19.8304 21.91C19.7484 22.0662 19.6471 22.2578 19.5732 22.4863C19.1975 22.6547 18.832 22.8051 18.5294 22.9136C17.4417 23.3034 16.6666 23.5331 16.1244 23.7037L16.1032 23.7132C16.1431 23.5841 16.1377 23.474 16.095 23.5071C16.0465 23.5541 16.0119 23.7233 15.9565 23.7344C15.843 23.7577 15.6838 23.6253 15.7237 23.3827C15.7601 23.1639 15.8769 22.9667 15.9274 22.8402C15.997 22.6654 16.0163 22.4922 15.9635 22.5864C15.8441 22.7965 15.6207 23.2035 15.552 23.4877C15.4835 23.7718 15.5561 23.9659 15.6758 24.0412C15.8248 24.135 15.9519 24.02 16.0494 23.8421L16.0836 23.769C16.1174 23.769 16.1746 23.7611 16.2599 23.7421C16.5083 23.6861 17.1295 23.5959 17.9836 23.4844C18.6159 23.402 19.0526 23.2281 19.4746 23.0346C19.4727 23.0813 19.4722 23.1289 19.4743 23.178C19.4973 23.7583 19.8771 23.9221 20.3964 23.8136C20.8975 23.7082 21.5962 23.2482 22.0149 22.9379C22.4515 22.6144 22.7035 22.3253 22.7677 22.2245C22.8842 21.9774 22.9161 21.7043 22.9241 21.5755C22.9622 21.9303 22.9931 22.4214 23.3282 22.8426C23.6368 23.2303 24.2692 23.7712 25.4586 23.786C25.4626 23.6443 25.4059 23.202 25.4059 23.202ZM25.3273 19.6061C25.4976 19.4148 25.8609 19.5399 26.1336 19.7825C25.9939 19.8153 25.8041 19.8738 25.5947 19.9487C25.4704 19.7985 25.3316 19.6537 25.3273 19.6061Z" fill="white"/>
<path d="M18.6399 16.9838C18.7171 16.9485 18.9534 16.8422 19.208 16.6936C19.4622 16.5461 19.701 16.3673 19.8178 16.2485C19.8626 16.2029 19.9024 16.1673 19.9279 16.125C20.0042 16.1566 20.0567 16.1895 20.0895 16.2024C20.1387 16.2214 20.2044 16.2488 20.2471 16.1084C20.2897 15.9682 20.2332 15.8777 20.1499 15.7696C20.0795 15.6789 19.9678 15.5426 19.8771 15.5088C19.8002 15.4799 19.7637 15.6519 19.7754 15.6477H19.8268L19.8368 15.6525C19.7309 15.706 19.6489 15.8724 19.6407 15.9309C19.6323 15.9945 19.6443 16.0413 19.7963 16.0805L19.8573 16.0985C19.7306 16.2488 19.4943 16.4042 19.3334 16.5144C19.105 16.6712 18.7809 16.8671 18.6886 16.9236C18.5964 16.9799 18.6041 16.9976 18.6399 16.9838ZM20.0123 15.8795L20.0205 15.8043C20.1273 15.9262 20.2066 16.0712 20.1987 16.0917C20.1496 16.0957 20.0885 16.0503 19.9817 16.0046C19.9936 15.9682 20.0036 15.9281 20.0123 15.8795ZM19.7056 15.8796C19.7049 15.8567 19.7461 15.7932 19.8331 15.7584C19.92 15.7234 19.9585 15.8211 19.9661 15.9401L19.9403 15.9877L19.8619 15.9606C19.779 15.9363 19.723 15.9225 19.7056 15.8796Z" fill="white"/>
<path d="M24.3355 19.2776C24.4608 19.1947 24.8053 18.9457 25.0008 18.7824C25.1367 18.669 25.2964 18.502 25.4048 18.3608C25.4728 18.4049 25.5363 18.444 25.5941 18.478C25.7055 18.5432 25.7502 18.6399 25.7502 18.6399C25.7708 18.6082 25.8667 18.4351 25.8292 18.3508C25.8067 18.3233 25.6697 18.2431 25.5296 18.1573C25.6007 17.9976 25.6985 17.7214 25.5584 17.6247C25.4386 17.5427 25.2366 17.6785 25.143 17.8547C25.0658 18.0007 25.0558 18.1245 25.2032 18.2259C25.2446 18.2544 25.2843 18.2814 25.3233 18.307C25.1747 18.4698 24.9009 18.7106 24.7061 18.8746C24.4641 19.0774 24.2353 19.2762 24.1954 19.3236L24.1839 19.3421C24.131 19.1947 24.1454 19.1037 24.1062 19.1527C23.9367 19.4189 24.149 19.6345 24.2263 19.8499C24.1218 19.9448 23.9618 19.8577 23.9082 19.7746C23.7939 19.6026 23.8321 19.2533 23.6983 19.1993C23.6638 19.2936 23.6414 19.3987 23.6414 19.3987C23.6414 19.3987 23.7431 19.6379 23.7173 19.7958C23.7013 19.8914 23.6168 20.0032 23.5059 20.0051C23.209 20.0127 23.3554 19.5729 23.2408 19.3238C23.2176 19.3849 23.2009 19.4502 23.1731 19.5068C23.1941 19.5723 23.2057 19.6631 23.2087 19.7157C23.2163 19.8202 23.2078 19.9322 23.2253 20.0219C23.2498 20.1479 23.3198 20.2317 23.4266 20.2395C23.648 20.2575 23.7491 20.0773 23.7827 19.9303C23.8208 20.0807 24.1141 20.2459 24.2582 20.0616C24.4492 19.818 24.2964 19.6093 24.1987 19.3802L24.1872 19.3505C24.2008 19.3553 24.2519 19.3329 24.3355 19.2776ZM25.2014 17.9057C25.2749 17.7693 25.4295 17.7578 25.4758 17.8293C25.5127 17.8861 25.5157 17.997 25.4603 18.1141C25.3239 18.0284 25.2022 17.9444 25.2014 17.9057Z" fill="white"/>
<path d="M19.503 18.4114C19.2422 18.3929 19.1018 18.1537 19.0215 17.8081C18.9412 17.4625 18.9904 17.0067 19.0122 16.8899C19.034 16.7733 18.9111 16.8335 18.8633 17.1167C18.8158 17.3996 18.768 17.852 18.9362 18.3257C19.1042 18.7988 19.3904 18.9753 19.6413 18.9148C19.8921 18.8546 20.1129 18.2652 20.1907 18.0007C20.2684 17.7361 20.6161 16.6571 20.813 16.5991C20.8405 16.7314 20.6599 17.0632 20.6022 17.5621C20.5447 18.061 20.6447 18.7153 21.2771 18.8313C21.9095 18.9475 22.3385 18.5367 22.4941 18.2511C22.6498 17.966 22.7225 17.6663 22.74 17.5156C22.7603 17.8985 23.0211 18.4962 23.5276 18.6666C24.0171 18.8313 24.3911 18.6805 24.5563 18.4671C24.703 18.2775 24.8225 17.887 24.8328 17.5876C24.8427 17.2884 24.5845 16.7409 24.5267 16.5666C24.4688 16.3927 24.4389 16.2719 24.4338 16.2117C24.4289 16.1515 24.5645 16.2815 24.6498 16.3069C24.7076 16.3185 24.6873 16.1933 24.6171 16.1073C24.547 16.0215 24.1675 15.4453 24.1409 15.4855C24.1246 15.5095 23.9727 15.9333 23.9627 15.9983C24.0228 16.0378 24.0924 16.1468 24.0977 16.2513C24.1024 16.3557 24.2029 16.815 24.2958 17.0703C24.3887 17.3255 24.5693 17.8151 24.5819 17.9498C24.4014 18.0772 23.9946 18.2394 23.6084 18.075C23.2221 17.91 23.0988 17.6711 23.0562 17.2442C23.029 16.9714 23.0263 16.4688 22.9291 16.0487C22.8744 15.8112 22.759 15.5697 22.622 15.4415C22.5897 15.5202 22.4441 16.0053 22.4441 16.0053C22.4916 16.1445 22.6392 16.6132 22.6345 17.0193C22.6292 17.4251 22.5973 17.8223 22.1428 18.096C21.6886 18.3696 21.0415 18.2606 20.8733 17.8336C20.705 17.4066 21.079 16.4461 21.0741 16.1933C21.069 15.9404 21.0236 15.9054 20.9184 15.9473C20.813 15.989 20.597 16.2328 20.4115 16.6294C20.2257 17.0263 20.1432 17.4229 20.0375 17.7571C19.9323 18.0913 19.7638 18.4299 19.503 18.4114Z" fill="white"/>
<path d="M11.9296 16.9319C12.2506 16.9086 12.5218 16.665 12.5919 16.6002C12.6622 16.535 12.7 16.4379 12.6497 16.4748C12.2784 16.8066 11.7817 16.816 11.7538 16.7602C11.7665 16.7045 11.8972 16.614 12.0879 16.4865C12.2037 16.409 12.3069 16.3364 12.3841 16.2334L12.4052 16.237C12.5465 16.2681 12.7097 16.3299 12.7595 16.2804C12.8407 16.2002 12.8515 16.069 12.7635 15.9274C12.6891 15.8073 12.5157 15.6955 12.365 15.6148C12.2147 15.5345 12.1855 15.6627 12.1662 15.7084C12.1477 15.751 12.1553 15.7874 12.1871 15.7883C12.1387 15.8543 12.1042 15.9395 12.0915 16.0098C12.0833 16.0552 12.09 16.0924 12.1085 16.123C12.1139 16.1317 12.1417 16.1658 12.1944 16.186L12.2598 16.2064C12.1472 16.3104 12.0176 16.3919 11.9496 16.433C11.8268 16.5073 11.6812 16.6373 11.6361 16.7716C11.5908 16.9064 11.6084 16.9552 11.9296 16.9319ZM12.497 15.984L12.5093 15.9154V15.8715C12.6111 15.9456 12.7738 16.086 12.7638 16.1701C12.6994 16.1554 12.5766 16.1295 12.46 16.0994C12.4748 16.0644 12.487 16.026 12.497 15.984ZM12.1954 16.0054C12.1205 15.9456 12.1935 15.886 12.2598 15.8476C12.3454 15.7981 12.3955 15.839 12.4394 15.9689C12.424 16.0061 12.4025 16.0423 12.3772 16.077C12.3106 16.0564 12.2167 16.0233 12.1954 16.0054Z" fill="white"/>
<path d="M12.8925 20.5596C12.8002 20.6397 12.7645 20.9005 12.7833 20.9162C12.802 20.9319 13.0903 21.0293 13.1354 21.0504L13.156 20.9719C13.2934 21.0954 13.4456 21.7116 13.4795 21.7134C13.5133 21.715 13.5624 21.6436 13.5945 21.48C13.6241 21.3282 13.6537 21.1011 13.6846 20.9162C13.7134 20.747 13.7581 20.6501 13.8597 20.6308C13.9615 20.6118 14.0368 20.7423 14.0631 20.8311C14.0631 20.8311 14.1345 20.6604 14.1497 20.5543C14.1327 20.4985 13.9745 20.2881 13.8447 20.3577C13.7148 20.4274 13.6334 20.7227 13.6072 20.9073C13.5807 21.0916 13.5605 21.3201 13.5285 21.3567C13.495 21.1994 13.3875 20.9178 13.2577 20.7596C13.1118 20.5823 12.9412 20.5173 12.8925 20.5596Z" fill="white"/>
<path d="M11.6628 20.244C11.7833 20.2109 12.0544 20.1693 12.1841 20.1015C12.3065 20.044 12.5152 19.7639 12.5962 19.6595C12.6771 19.555 12.6772 19.5025 12.6567 19.4749C12.5739 19.4294 12.0392 19.3845 11.7812 19.4485C11.71 19.4967 11.5706 19.755 11.55 19.809C11.5291 19.8628 11.5576 19.8594 11.644 19.8404C11.7306 19.8211 12.1409 19.8315 12.2894 19.8628C12.2275 19.9065 11.8078 20.1188 11.7249 20.1693C11.6423 20.2197 11.6214 20.2493 11.6628 20.244Z" fill="white"/>
<path d="M36.5249 21.7402C36.5125 21.4272 36.3594 20.9465 35.777 20.2089C35.576 19.9543 35.2932 19.6229 34.9949 19.2834C34.9867 19.1677 34.9784 19.0619 34.971 18.9711C34.9319 18.5039 34.7995 17.5507 34.7425 16.9872C34.7286 16.8451 34.7274 16.6939 34.7295 16.6149C34.7316 16.5522 34.7767 16.5606 34.8387 16.625C34.9007 16.6893 34.9963 16.7833 35.0163 16.7768C35.0587 16.7622 35.0218 16.6199 34.9371 16.4513C34.8526 16.2823 34.5331 15.5992 34.4744 15.5727C34.4442 15.5592 34.2935 15.9603 34.2842 16.0424C34.3141 16.0928 34.3913 16.1711 34.3988 16.3993C34.4067 16.6272 34.544 17.9736 34.623 18.8221L34.6273 18.8694C34.1813 18.3708 33.7613 17.9162 33.5885 17.7319C33.5586 17.7 33.5257 17.6636 33.4902 17.6247C33.4621 17.3977 33.4361 17.1815 33.4182 17.0029C33.4037 16.8611 33.4027 16.7096 33.4052 16.6306C33.4067 16.568 33.4521 16.5765 33.5141 16.641C33.5765 16.7053 33.6717 16.7992 33.6917 16.7925C33.7341 16.7781 33.6972 16.6359 33.6124 16.4669C33.528 16.298 33.1949 15.5992 33.1359 15.5727C33.106 15.5592 32.9484 15.9923 32.939 16.0737C32.9693 16.1244 33.0463 16.2028 33.0539 16.4309C33.0569 16.5277 33.0821 16.8214 33.1156 17.1919C32.82 16.8401 32.5306 16.4718 32.51 16.3969C32.5027 16.36 32.5652 16.3827 32.6809 16.4015C32.7961 16.4199 32.9042 16.4546 32.8857 16.3975C32.877 16.371 32.833 16.3048 32.7227 16.2362C32.6122 16.1678 32.3293 15.9905 32.1188 15.8654C31.9079 15.7401 31.8034 15.6348 31.7599 15.6648C31.7384 15.6796 31.7575 16.109 31.7699 16.1622C31.8229 16.167 31.9208 16.2065 31.9832 16.29C32.0462 16.3735 32.4494 16.9396 32.7683 17.3224C32.8601 17.4326 33.0038 17.6034 33.172 17.8006C33.2049 18.1533 33.2394 18.5176 33.2679 18.8221C33.3326 19.5165 33.5652 21.348 33.5675 21.9433C33.3957 22.1046 33.0446 22.3297 32.6833 22.3343C32.322 22.3389 32.1239 22.2437 31.9783 21.9747C31.9333 21.8913 31.8916 21.8075 31.8501 21.7316C31.7517 21.5512 31.532 21.45 31.3203 21.4997L31.288 21.5083L31.2304 21.536C31.087 21.6112 30.9387 21.7372 30.7938 21.9326C30.5431 22.2716 30.3829 22.6394 30.1975 22.9579C30.0042 23.2896 29.8559 23.5121 29.517 23.4589C29.2783 23.4214 29.0971 23.2165 28.9854 22.9643C29.2992 22.7469 29.5271 22.4633 29.6937 22.0702C29.9107 21.5593 29.9881 20.9834 29.9688 20.3358C29.9503 19.7263 29.6728 18.2924 29.5996 17.7429C29.5265 17.193 29.4214 16.7418 29.4336 16.6244C29.445 16.5112 29.6251 16.7778 29.7173 16.7978C29.7645 16.7872 29.7392 16.6171 29.6496 16.4734C29.5888 16.3757 29.3964 15.9312 29.2704 15.7168C29.2112 15.6154 29.197 15.5567 29.1694 15.5447C29.1422 15.5322 28.9325 15.9807 28.9579 16.0295C29.0199 16.1183 29.0623 16.1606 29.0753 16.3197C29.0886 16.4788 29.2323 17.6468 29.3579 18.5069C29.4526 19.156 29.6616 20.3349 29.6885 21.2064C29.6974 21.4907 29.6569 21.6948 29.6217 21.8088C29.5315 21.9835 29.3845 22.1774 28.868 22.5456C28.7882 22.0254 28.8749 21.6027 28.7993 21.5636C28.714 21.5728 28.7004 21.8153 28.6907 22.1144C28.686 22.2526 28.692 22.4439 28.7179 22.6495C28.0835 23.0741 27.2454 23.4607 26.8518 23.6671C26.6209 23.7884 26.7042 23.8167 26.8996 23.7562C27.0951 23.6954 28.1691 23.4134 28.7425 23.1114L28.8042 23.0771C28.8333 23.1784 28.8686 23.2764 28.912 23.3668C29.1049 23.7682 29.3806 24.0066 29.6792 23.9833C29.9303 23.964 30.1125 23.6948 30.2714 23.3738C30.432 23.0489 30.7034 22.4318 30.9696 22.2022C31.0718 22.1137 31.1775 22.0437 31.2804 22.0016C31.2804 22.0016 31.4622 21.9408 31.6295 22.0503C31.6895 22.0898 31.7342 22.1461 31.7626 22.2091C31.8286 22.3537 31.9066 22.5377 32.0661 22.6918C32.3472 22.9629 32.7991 22.9069 33.1381 22.7493C33.4766 22.5915 33.6494 22.3453 33.7248 22.0529C33.8533 21.5526 33.8327 21.0399 33.8082 20.5846C33.7798 20.0649 33.6969 19.5338 33.6497 18.9711C33.6346 18.7901 33.605 18.5384 33.5709 18.2655C33.901 18.647 34.2438 19.0342 34.4518 19.2459C34.5235 19.319 34.5991 19.4002 34.6768 19.4859C34.7388 20.3377 34.7985 21.4036 34.83 21.8509C34.8612 22.2965 34.8411 22.8568 34.8374 22.9542C34.8336 23.0516 34.8878 23.0349 34.9655 22.8187C35.0696 22.5285 35.1349 21.7673 35.1122 21.2626C35.0985 20.9627 35.0686 20.416 35.0364 19.8988C35.2926 20.2037 35.5358 20.5115 35.6941 20.7192C35.9754 21.0881 36.2339 21.5268 36.3242 21.8005C36.4144 22.0744 36.4244 22.1556 36.442 22.2044C36.4595 22.2532 36.5372 22.0533 36.5249 21.7402Z" fill="white"/>
<path d="M31.7734 32.1609C31.748 32.0881 31.6702 32.0347 31.5771 32.0347C31.484 32.0347 31.4064 32.0881 31.3808 32.1609H30.4995C30.4906 32.063 30.4993 31.9646 30.5269 31.8688L32.3465 31.8676L32.3971 31.9532C32.4429 32.0302 32.5007 32.0999 32.5677 32.1609L31.7734 32.1609ZM32.978 31.3142H30.7914C30.9595 31.1928 31.0476 31.0156 31.0239 30.8363C31.0089 30.7233 30.897 30.6389 30.7608 30.6274H30.6923C30.5265 30.6437 30.4063 30.7633 30.4237 30.8948L30.4304 30.9453L30.4385 31.023C30.4474 31.1206 30.4388 31.2187 30.4114 31.3142H14.2491C14.4891 31.6639 14.9267 31.8783 15.3992 31.8779L30.1475 31.8689C29.9788 31.9905 29.8904 32.168 29.9142 32.3476C29.9317 32.479 30.08 32.5727 30.2458 32.5565C30.4115 32.5402 30.5317 32.4206 30.5144 32.2889L30.5077 32.2386H31.3745C31.3897 32.3233 31.4742 32.3883 31.5771 32.3883C31.68 32.3883 31.7645 32.3233 31.7799 32.2386H32.6616V32.2365C32.8457 32.3673 33.0796 32.4425 33.3271 32.4425C33.5599 32.4425 33.7486 32.2805 33.7486 32.0806V31.976C33.7486 31.6106 33.4037 31.3142 32.978 31.3142" fill="white"/>
<path d="M251.111 34.8274L253.474 28.2546H255L251.652 37.158C251.291 38.1081 250.794 38.8291 250.159 39.3209C249.536 39.8239 248.819 40.0475 248.01 39.9916V38.6335C249.016 38.7117 249.754 38.1416 250.225 36.9232L250.373 36.6047L246.795 28.2546H248.321L251.111 34.8274Z" fill="#1B1711"/>
<path d="M242.629 36.8563C241.393 36.8563 240.365 36.4371 239.544 35.5988C238.724 34.7492 238.314 33.6985 238.314 32.4465C238.314 31.1946 238.724 30.1494 239.544 29.3111C240.365 28.4616 241.393 28.0368 242.629 28.0368C243.439 28.0368 244.166 28.238 244.812 28.6404C245.457 29.0316 245.939 29.5626 246.256 30.2333L245.058 30.9375C244.85 30.4904 244.527 30.1327 244.09 29.8644C243.663 29.5961 243.176 29.462 242.629 29.462C241.809 29.462 241.12 29.747 240.562 30.3171C240.015 30.8984 239.741 31.6082 239.741 32.4465C239.741 33.2737 240.015 33.9779 240.562 34.5592C241.12 35.1293 241.809 35.4143 242.629 35.4143C243.176 35.4143 243.669 35.2858 244.106 35.0287C244.544 34.7604 244.877 34.4027 245.107 33.9556L246.322 34.6766C245.961 35.3472 245.452 35.8782 244.795 36.2694C244.139 36.6607 243.417 36.8563 242.629 36.8563Z" fill="#1B1711"/>
<path d="M233.597 28.0368C234.559 28.0368 235.331 28.3498 235.91 28.9757C236.49 29.5905 236.78 30.4289 236.78 31.4908V36.6383H235.353V31.5746C235.353 30.904 235.172 30.3786 234.811 29.9985C234.45 29.6185 233.952 29.4285 233.318 29.4285C232.585 29.4285 232.005 29.6632 231.578 30.1327C231.152 30.591 230.938 31.2784 230.938 32.195V36.6383H229.511V28.2548H230.938V29.462C231.507 28.5119 232.393 28.0368 233.597 28.0368Z" fill="#1B1711"/>
<path d="M227.82 33.1172H220.945C221.087 33.855 221.421 34.4362 221.946 34.861C222.471 35.2746 223.127 35.4814 223.915 35.4814C224.998 35.4814 225.786 35.0734 226.278 34.2574L227.492 34.9616C226.683 36.2247 225.479 36.8563 223.882 36.8563C222.591 36.8563 221.53 36.4427 220.699 35.6155C219.889 34.766 219.484 33.7097 219.484 32.4465C219.484 31.1722 219.884 30.1215 220.682 29.2943C221.481 28.456 222.515 28.0368 223.784 28.0368C224.987 28.0368 225.966 28.4727 226.721 29.3446C227.487 30.1942 227.87 31.2337 227.87 32.4633C227.87 32.6757 227.853 32.8937 227.82 33.1172ZM223.784 29.4117C223.029 29.4117 222.394 29.6297 221.88 30.0656C221.377 30.5016 221.065 31.094 220.945 31.8429H226.426C226.305 31.0716 226.004 30.4736 225.523 30.0488C225.042 29.6241 224.462 29.4117 223.784 29.4117Z" fill="#1B1711"/>
<path d="M216.353 29.6965V24.9011H217.781V36.6381H216.353V35.1961C215.653 36.3027 214.619 36.856 213.252 36.856C212.092 36.856 211.113 36.4313 210.315 35.5817C209.505 34.721 209.1 33.6759 209.1 32.4463C209.1 31.2279 209.505 30.1883 210.315 29.3276C211.124 28.4669 212.103 28.0365 213.252 28.0365C214.619 28.0365 215.653 28.5898 216.353 29.6965ZM213.432 35.4476C214.264 35.4476 214.959 35.1625 215.517 34.5925C216.074 34 216.353 33.2846 216.353 32.4463C216.353 31.5967 216.074 30.8869 215.517 30.3169C214.959 29.7356 214.264 29.445 213.432 29.445C212.612 29.445 211.923 29.7356 211.365 30.3169C210.807 30.8869 210.528 31.5967 210.528 32.4463C210.528 33.2846 210.807 34 211.365 34.5925C211.923 35.1625 212.612 35.4476 213.432 35.4476Z" fill="#1B1711"/>
<path d="M206.676 26.7287C206.403 26.7287 206.173 26.6337 205.987 26.4436C205.801 26.2536 205.708 26.0245 205.708 25.7562C205.708 25.4879 205.801 25.2588 205.987 25.0687C206.173 24.8675 206.403 24.7669 206.676 24.7669C206.939 24.7669 207.163 24.8675 207.349 25.0687C207.535 25.2588 207.628 25.4879 207.628 25.7562C207.628 26.0245 207.535 26.2536 207.349 26.4436C207.163 26.6337 206.939 26.7287 206.676 26.7287ZM207.382 36.638H205.954V28.2545H207.382V36.638Z" fill="#1B1711"/>
<path d="M199.749 30.5183C199.749 31.0549 200.291 31.474 201.374 31.7759C201.779 31.8653 202.118 31.9603 202.391 32.0609C202.676 32.1503 202.982 32.29 203.31 32.4801C203.649 32.6701 203.906 32.9216 204.082 33.2346C204.257 33.5476 204.344 33.9165 204.344 34.3412C204.344 35.1013 204.054 35.7105 203.474 36.1688C202.895 36.6271 202.162 36.8563 201.275 36.8563C200.488 36.8563 199.804 36.683 199.224 36.3365C198.655 35.9788 198.251 35.4981 198.01 34.8945L199.241 34.1735C199.372 34.576 199.618 34.8945 199.979 35.1293C200.34 35.364 200.772 35.4814 201.275 35.4814C201.768 35.4814 202.162 35.3864 202.457 35.1963C202.752 35.0063 202.9 34.7213 202.9 34.3412C202.9 33.7711 202.359 33.3575 201.275 33.1005C200.914 32.9999 200.641 32.9216 200.455 32.8657C200.269 32.8098 200.012 32.7092 199.684 32.5639C199.367 32.4186 199.126 32.2677 198.962 32.1112C198.798 31.9435 198.645 31.7256 198.502 31.4573C198.371 31.1778 198.305 30.8704 198.305 30.5351C198.305 29.8085 198.579 29.2105 199.126 28.741C199.684 28.2715 200.378 28.0368 201.21 28.0368C201.877 28.0368 202.468 28.1933 202.982 28.5063C203.507 28.8081 203.901 29.2328 204.164 29.7806L202.966 30.468C202.67 29.7526 202.085 29.3949 201.21 29.3949C200.794 29.3949 200.444 29.4955 200.16 29.6967C199.886 29.8979 199.749 30.1718 199.749 30.5183Z" fill="#1B1711"/>
<path d="M197.149 33.1172H190.273C190.416 33.855 190.749 34.4362 191.274 34.861C191.799 35.2746 192.456 35.4814 193.243 35.4814C194.327 35.4814 195.114 35.0734 195.606 34.2574L196.821 34.9616C196.011 36.2247 194.808 36.8563 193.211 36.8563C191.92 36.8563 190.859 36.4427 190.027 35.6155C189.218 34.766 188.813 33.7097 188.813 32.4465C188.813 31.1722 189.212 30.1215 190.011 29.2943C190.809 28.456 191.843 28.0368 193.112 28.0368C194.316 28.0368 195.295 28.4727 196.05 29.3446C196.815 30.1942 197.198 31.2337 197.198 32.4633C197.198 32.6757 197.182 32.8937 197.149 33.1172ZM193.112 29.4117C192.357 29.4117 191.723 29.6297 191.209 30.0656C190.706 30.5016 190.394 31.094 190.273 31.8429H195.754C195.634 31.0716 195.333 30.4736 194.852 30.0488C194.37 29.6241 193.79 29.4117 193.112 29.4117Z" fill="#1B1711"/>
<path d="M188.305 36.6381H186.615L184.039 32.1445H181.331V36.6381H179.805V24.9011H184.4C185.384 24.9011 186.227 25.2588 186.927 25.9742C187.627 26.6784 187.977 27.5335 187.977 28.5395C187.977 29.2997 187.753 29.9927 187.304 30.6187C186.845 31.2558 186.276 31.6973 185.598 31.9433L188.305 36.6381ZM184.4 26.3598H181.331V30.736H184.4C184.969 30.736 185.45 30.5236 185.844 30.0989C186.249 29.6741 186.451 29.1543 186.451 28.5395C186.451 27.9247 186.249 27.4106 185.844 26.997C185.45 26.5722 184.969 26.3598 184.4 26.3598Z" fill="#1B1711"/>
<path d="M239.317 11.2696C240.247 11.2696 240.991 11.577 241.549 12.1918C242.118 12.8066 242.402 13.6282 242.402 14.6566V19.8712H240.975V14.7069C240.975 14.0697 240.811 13.5723 240.482 13.2146C240.165 12.8457 239.728 12.6613 239.17 12.6613C238.535 12.6613 238.037 12.8793 237.676 13.3152C237.326 13.74 237.151 14.3716 237.151 15.2099V19.8712H235.724V14.7069C235.724 14.0697 235.565 13.5723 235.248 13.2146C234.941 12.8457 234.52 12.6613 233.984 12.6613C233.361 12.6613 232.852 12.8849 232.458 13.332C232.075 13.7679 231.884 14.3939 231.884 15.2099V19.8712H230.456V11.4876H231.884V12.611C232.442 11.7168 233.257 11.2696 234.329 11.2696C235.434 11.2696 236.238 11.7447 236.741 12.6948C237.31 11.7447 238.169 11.2696 239.317 11.2696Z" fill="#005430"/>
<path d="M226.855 15.9308V11.4875H228.283V19.871H226.855V18.6638C226.286 19.6139 225.4 20.089 224.197 20.089C223.234 20.089 222.463 19.7816 221.883 19.1668C221.303 18.5409 221.013 17.6969 221.013 16.635V11.4875H222.441V16.5512C222.441 17.2218 222.622 17.7472 222.983 18.1273C223.344 18.5073 223.841 18.6973 224.476 18.6973C225.209 18.6973 225.789 18.4682 226.215 18.0099C226.642 17.5404 226.855 16.8474 226.855 15.9308Z" fill="#005430"/>
<path d="M218.31 9.96175C218.037 9.96175 217.807 9.86674 217.621 9.67671C217.435 9.48668 217.342 9.25753 217.342 8.98926C217.342 8.72098 217.435 8.49183 217.621 8.30181C217.807 8.1006 218.037 8 218.31 8C218.573 8 218.797 8.1006 218.983 8.30181C219.169 8.49183 219.262 8.72098 219.262 8.98926C219.262 9.25753 219.169 9.48668 218.983 9.67671C218.797 9.86674 218.573 9.96175 218.31 9.96175ZM219.016 19.8711H217.588V11.4876H219.016V19.8711Z" fill="#005430"/>
<path d="M212.524 11.2696C213.454 11.2696 214.198 11.577 214.755 12.1918C215.324 12.8066 215.609 13.6282 215.609 14.6566V19.8712H214.181V14.7069C214.181 14.0697 214.017 13.5723 213.689 13.2146C213.372 12.8457 212.934 12.6613 212.376 12.6613C211.742 12.6613 211.244 12.8793 210.883 13.3152C210.533 13.74 210.358 14.3716 210.358 15.2099V19.8712H208.93V14.7069C208.93 14.0697 208.771 13.5723 208.454 13.2146C208.148 12.8457 207.727 12.6613 207.191 12.6613C206.567 12.6613 206.058 12.8849 205.665 13.332C205.282 13.7679 205.09 14.3939 205.09 15.2099V19.8712H203.663V11.4876H205.09V12.611C205.648 11.7168 206.463 11.2696 207.535 11.2696C208.64 11.2696 209.444 11.7447 209.948 12.6948C210.516 11.7447 211.375 11.2696 212.524 11.2696Z" fill="#005430"/>
<path d="M201.972 16.3501H195.097C195.239 17.0878 195.573 17.6691 196.098 18.0938C196.623 18.5074 197.279 18.7142 198.067 18.7142C199.15 18.7142 199.938 18.3062 200.43 17.4902L201.644 18.1944C200.835 19.4576 199.631 20.0891 198.034 20.0891C196.743 20.0891 195.682 19.6755 194.851 18.8484C194.041 17.9988 193.636 16.9425 193.636 15.6794C193.636 14.4051 194.036 13.3543 194.834 12.5272C195.633 11.6888 196.667 11.2696 197.936 11.2696C199.139 11.2696 200.118 11.7056 200.873 12.5775C201.639 13.427 202.022 14.4666 202.022 15.6962C202.022 15.9085 202.005 16.1265 201.972 16.3501ZM197.936 12.6445C197.181 12.6445 196.546 12.8625 196.032 13.2985C195.529 13.7344 195.217 14.3268 195.097 15.0758H200.578C200.457 14.3045 200.156 13.7065 199.675 13.2817C199.194 12.8569 198.614 12.6445 197.936 12.6445Z" fill="#005430"/>
<path d="M190.588 11.4875V12.8959C191.058 11.8564 191.912 11.3366 193.148 11.3366V12.8624C192.448 12.8289 191.846 13.0189 191.343 13.4325C190.839 13.8461 190.588 14.5112 190.588 15.4278V19.8711H189.16V11.4875H190.588Z" fill="#005430"/>
<path d="M179.805 8.13393H183.973C185.023 8.13393 185.904 8.49722 186.615 9.22379C187.326 9.95036 187.682 10.8446 187.682 11.9065C187.682 12.9684 187.326 13.8627 186.615 14.5893C185.904 15.3158 185.023 15.6791 183.973 15.6791H181.331V19.8709H179.805V8.13393ZM181.331 14.2204H183.973C184.619 14.2204 185.144 14.0024 185.548 13.5665C185.964 13.1082 186.172 12.5549 186.172 11.9065C186.172 11.2358 185.964 10.6825 185.548 10.2466C185.133 9.81064 184.608 9.59267 183.973 9.59267H181.331V14.2204Z" fill="#005430"/>
<path d="M171.113 13.3543C170.397 13.3543 169.795 13.1056 169.309 12.6082C168.822 12.1108 168.579 11.5111 168.579 10.8089C168.579 10.1067 168.822 9.50695 169.309 9.00958C169.795 8.48296 170.397 8.21964 171.113 8.21964C171.8 8.21964 172.387 8.48296 172.874 9.00958C173.36 9.50695 173.604 10.1067 173.604 10.8089C173.604 11.5111 173.36 12.1108 172.874 12.6082C172.387 13.1056 171.8 13.3543 171.113 13.3543ZM172.959 39.2907H169.223V17.3479H172.959V39.2907Z" fill="#1B1711"/>
<path d="M159.825 21.1218V8.57053H163.562V39.2905H159.825V35.5163C157.992 38.4128 155.287 39.861 151.707 39.861C148.672 39.861 146.11 38.7492 144.02 36.5257C141.901 34.2729 140.841 31.5373 140.841 28.3191C140.841 25.13 141.901 22.4091 144.02 20.1563C146.138 17.9035 148.701 16.7771 151.707 16.7771C155.287 16.7771 157.992 18.2254 159.825 21.1218ZM152.18 36.1746C154.356 36.1746 156.174 35.4285 157.635 33.9364C159.095 32.3858 159.825 30.5133 159.825 28.3191C159.825 26.0955 159.095 24.2377 157.635 22.7456C156.174 21.2242 154.356 20.4635 152.18 20.4635C150.032 20.4635 148.229 21.2242 146.768 22.7456C145.308 24.2377 144.578 26.0955 144.578 28.3191C144.578 30.5133 145.308 32.3858 146.768 33.9364C148.229 35.4285 150.032 36.1746 152.18 36.1746Z" fill="#1B1711"/>
<path d="M132.618 28.9774V17.3477H136.355V39.2906H132.618V36.1308C131.13 38.6176 128.81 39.8611 125.661 39.8611C123.141 39.8611 121.122 39.0565 119.605 37.4474C118.087 35.809 117.328 33.6001 117.328 30.8206V17.3477H121.065V30.6012C121.065 32.3566 121.538 33.7317 122.482 34.7265C123.427 35.7212 124.73 36.2186 126.391 36.2186C128.309 36.2186 129.827 35.6188 130.943 34.4193C132.06 33.1905 132.618 31.3765 132.618 28.9774Z" fill="#1B1711"/>
<path d="M108.403 21.1219V17.3477H112.14V39.2905H108.403V35.5164C106.57 38.4128 103.865 39.8611 100.286 39.8611C97.2505 39.8611 94.6878 38.7493 92.5976 36.5257C90.4788 34.273 89.4193 31.5374 89.4193 28.3191C89.4193 25.1301 90.4788 22.4092 92.5976 20.1564C94.7164 17.9036 97.2791 16.7772 100.286 16.7772C103.865 16.7772 106.57 18.2254 108.403 21.1219ZM100.758 36.1747C102.934 36.1747 104.752 35.4286 106.213 33.9365C107.673 32.3859 108.403 30.5134 108.403 28.3191C108.403 26.0956 107.673 24.2378 106.213 22.7457C104.752 21.2243 102.934 20.4636 100.758 20.4636C98.6105 20.4636 96.8066 21.2243 95.3464 22.7457C93.8861 24.2378 93.1559 26.0956 93.1559 28.3191C93.1559 30.5134 93.8861 32.3859 95.3464 33.9365C96.8066 35.4286 98.6105 36.1747 100.758 36.1747Z" fill="#1B1711"/>
<path d="M75.3816 39.861C72.5756 39.861 70.1704 39.2027 68.1661 37.8861C66.1904 36.5403 64.8017 34.6825 64 32.3126L67.436 30.2939C68.5813 34.0095 71.2585 35.8674 75.4675 35.8674C77.5005 35.8674 79.0609 35.4431 80.149 34.5947C81.2657 33.7462 81.824 32.5906 81.824 31.1277C81.824 29.6941 81.28 28.597 80.192 27.8363C79.2184 27.1634 77.4002 26.3881 74.7374 25.5104L71.8598 24.5449C71.2298 24.2816 70.3995 23.9012 69.3687 23.4039C68.3665 22.8772 67.6364 22.3506 67.1783 21.824C65.9184 20.4196 65.2885 18.7081 65.2885 16.6894C65.2885 13.9977 66.2047 11.8912 68.0373 10.3698C69.8698 8.78994 72.1031 8 74.7374 8C77.0853 8 79.1468 8.59977 80.9221 9.79931C82.6973 10.9989 84.0288 12.6372 84.9164 14.7145L81.5663 16.6894C80.2779 13.5296 78.0015 11.9497 74.7374 11.9497C73.1053 11.9497 71.7882 12.3593 70.786 13.1785C69.7839 13.9977 69.2828 15.1095 69.2828 16.5138C69.2828 17.8596 69.7552 18.8836 70.7001 19.5858C71.6736 20.3172 73.3057 21.0487 75.5964 21.7801L77.3573 22.3506C78.3308 22.7309 78.8605 22.9357 78.9464 22.965C79.8627 23.3161 80.8648 23.7988 81.9529 24.4132C82.726 24.8521 83.4991 25.525 84.2722 26.432C85.2743 27.456 85.7754 28.992 85.7754 31.04C85.7754 33.7316 84.8162 35.882 82.8978 37.4911C80.9507 39.071 78.4453 39.861 75.3816 39.861Z" fill="#1B1711"/>
</svg>
