<svg width="24" height="24" viewBox="0 0 24 24" fill="none" xmlns="http://www.w3.org/2000/svg">
<path d="M13.1309 1.00111C13.9336 0.998029 14.7363 1.0061 15.5387 1.02531L15.7521 1.03301C15.9985 1.04181 16.2416 1.05281 16.5353 1.06601C17.7056 1.12101 18.5042 1.3058 19.2049 1.57749C19.9309 1.85688 20.5424 2.23527 21.154 2.84685C21.7132 3.39639 22.146 4.06115 22.4223 4.79488C22.694 5.49556 22.8788 6.29523 22.9338 7.46559C22.947 7.75818 22.958 8.00237 22.9668 8.24876L22.9734 8.46216C22.9929 9.26424 23.0013 10.0666 22.9987 10.8689L22.9998 11.6894V13.1304C23.0025 13.9331 22.994 14.7358 22.9745 15.5382L22.9679 15.7516C22.9591 15.998 22.9481 16.2411 22.9349 16.5348C22.8799 17.7051 22.6929 18.5037 22.4223 19.2044C22.1469 19.9389 21.714 20.6042 21.154 21.1535C20.604 21.7127 19.9389 22.1454 19.2049 22.4218C18.5042 22.6935 17.7056 22.8783 16.5353 22.9333C16.2416 22.9465 15.9985 22.9575 15.7521 22.9663L15.5387 22.9729C14.7363 22.9924 13.9336 23.0009 13.1309 22.9982L12.3103 22.9993H10.8705C10.0678 23.002 9.26511 22.9935 8.46266 22.974L8.24927 22.9674C7.98815 22.9579 7.72708 22.9469 7.46609 22.9344C6.29573 22.8794 5.49716 22.6924 4.79538 22.4218C4.06136 22.1461 3.39649 21.7132 2.84735 21.1535C2.28752 20.6039 1.85433 19.9387 1.57799 19.2044C1.3063 18.5037 1.12151 17.7051 1.06651 16.5348C1.05426 16.2738 1.04326 16.0127 1.03351 15.7516L1.02801 15.5382C1.00773 14.7358 0.998565 13.9331 1.00051 13.1304V10.8689C0.997443 10.0666 1.00551 9.26425 1.02471 8.46216L1.03241 8.24876C1.04121 8.00237 1.05221 7.75818 1.06541 7.46559C1.12041 6.29413 1.3052 5.49666 1.57689 4.79488C1.85339 4.06079 2.28743 3.39622 2.84845 2.84795C3.39721 2.28779 4.06167 1.85421 4.79538 1.57749C5.49716 1.3058 6.29463 1.12101 7.46609 1.06601L8.24927 1.03301L8.46266 1.02751C9.26473 1.00724 10.067 0.998072 10.8694 1.00001L13.1309 1.00111ZM12.0001 6.50092C11.2714 6.49062 10.5479 6.62524 9.87169 6.89698C9.19545 7.16872 8.57997 7.57215 8.061 8.08383C7.54204 8.5955 7.12994 9.20522 6.84867 9.87755C6.56739 10.5499 6.42255 11.2714 6.42255 12.0002C6.42255 12.729 6.56739 13.4505 6.84867 14.1228C7.12994 14.7951 7.54204 15.4049 8.061 15.9165C8.57997 16.4282 9.19545 16.8316 9.87169 17.1034C10.5479 17.3751 11.2714 17.5098 12.0001 17.4994C13.4588 17.4994 14.8577 16.92 15.8891 15.8886C16.9205 14.8572 17.5 13.4583 17.5 11.9996C17.5 10.541 16.9205 9.1421 15.8891 8.11068C14.8577 7.07927 13.4588 6.50092 12.0001 6.50092ZM12.0001 8.70085C12.4385 8.69277 12.874 8.77212 13.2814 8.93427C13.6887 9.09641 14.0596 9.3381 14.3725 9.64521C14.6854 9.95233 14.9339 10.3187 15.1036 10.723C15.2733 11.1272 15.3607 11.5612 15.3608 11.9996C15.3609 12.438 15.2736 12.8721 15.104 13.2764C14.9345 13.6807 14.6861 14.0471 14.3733 14.3544C14.0605 14.6616 13.6897 14.9034 13.2824 15.0657C12.8751 15.228 12.4396 15.3075 12.0012 15.2995C11.1261 15.2995 10.2867 14.9519 9.66787 14.333C9.04902 13.7142 8.70135 12.8748 8.70135 11.9996C8.70135 11.1245 9.04902 10.2851 9.66787 9.66626C10.2867 9.04741 11.1261 8.69975 12.0012 8.69975L12.0001 8.70085ZM17.7749 4.85098C17.4201 4.86518 17.0845 5.01614 16.8384 5.27223C16.5924 5.52833 16.455 5.86969 16.455 6.22483C16.455 6.57997 16.5924 6.92134 16.8384 7.17743C17.0845 7.43353 17.4201 7.58448 17.7749 7.59868C18.1396 7.59868 18.4893 7.45382 18.7472 7.19597C19.005 6.93812 19.1499 6.58839 19.1499 6.22373C19.1499 5.85907 19.005 5.50935 18.7472 5.25149C18.4893 4.99364 18.1396 4.84878 17.7749 4.84878V4.85098Z" fill="white"/>
</svg>
